<?xml version="1.0" encoding="UTF-8"?>
<svg width="766px" height="222px" viewBox="0 0 766 222" version="1.1" xmlns="http://www.w3.org/2000/svg" xmlns:xlink="http://www.w3.org/1999/xlink">
    <!-- Generator: Sketch 63.1 (92452) - https://sketch.com -->
    <title>Artboard</title>
    <desc>Created with Sketch.</desc>
    <g id="Artboard" stroke="none" stroke-width="1" fill="none" fill-rule="evenodd">
        <g id="Group" transform="translate(3.000000, 3.000000)">
            <circle id="Oval" stroke="#E7E7E7" stroke-width="7" cx="27" cy="64" r="25"></circle>
            <path d="M55.0527346,173.77406 C57.5607541,177.943135 59,182.806439 59,188 C59,203.463973 46.2401154,216 30.5,216 C20.6101813,216 11.8969135,211.050962 6.78605111,203.536183 L12.5474152,199.983963 C16.4712038,206.013351 23.270036,210 31,210 C43.1502645,210 53,200.150264 53,188 C53,183.948944 51.905062,180.153625 49.9949865,176.893843 Z" id="Oval-Copy-3" fill="#E7E7E7"></path>
            <path d="M112.267367,163.77406 C114.775386,167.943135 116.214632,172.806439 116.214632,178 C116.214632,193.463973 103.454748,206 87.7146324,206 C77.8248137,206 69.1115459,201.050962 64.0006835,193.536183 L69.7620476,189.983963 C73.6858362,196.013351 80.4846684,200 88.2146324,200 C100.364897,200 110.214632,190.150264 110.214632,178 C110.214632,173.948944 109.119694,170.153625 107.209619,166.893843 Z" id="Oval-Copy-3" fill="#E7E7E7" transform="translate(90.107316, 184.886822) rotate(-100.000000) translate(-90.107316, -184.886822) "></path>
            <circle id="Oval-Copy" stroke="#E7E7E7" stroke-width="5" cx="146" cy="12" r="12"></circle>
            <path d="M122.518512,46.1259627 L194.00743,46.1259627 C197.573505,46.1259627 198.86665,46.4972651 200.170354,47.1944935 C201.474057,47.8917219 202.497212,48.9148761 203.19444,50.2185799 C203.891668,51.5222836 204.262971,52.8154285 204.262971,56.3815035 L204.262971,67.8704219 C204.262971,71.4364968 203.891668,72.7296418 203.19444,74.0333455 C202.497212,75.3370492 201.474057,76.3602035 200.170354,77.0574319 C198.86665,77.7546602 197.573505,78.1259627 194.00743,78.1259627 L122.518512,78.1259627 C118.952437,78.1259627 117.659292,77.7546602 116.355588,77.0574319 C115.051884,76.3602035 114.02873,75.3370492 113.331502,74.0333455 C112.634273,72.7296418 112.262971,71.4364968 112.262971,67.8704219 L112.262971,56.3815035 C112.262971,52.8154285 112.634273,51.5222836 113.331502,50.2185799 C114.02873,48.9148761 115.051884,47.8917219 116.355588,47.1944935 C117.659292,46.4972651 118.952437,46.1259627 122.518512,46.1259627 Z" id="Rectangle" stroke="#E7E7E7" stroke-width="7" transform="translate(158.262971, 62.125963) rotate(-44.000000) translate(-158.262971, -62.125963) "></path>
            <path d="M21.6994754,109.097131 C35.9433759,107.942721 44.8146179,107.365516 48.3132014,107.365516 C51.8041822,107.365516 60.5818732,107.940215 74.6462744,109.089613 C80.8739453,109.598561 85.668848,114.801307 85.668848,121.04974 L85.668848,148.780158 C85.6688446,155.108347 80.7546912,160.34894 74.4395682,160.755379 C61.6665833,161.577443 53.9778127,161.988475 51.3732564,161.988475 C48.6432267,161.988475 38.8608001,161.536887 22.0259767,160.63371 C15.6575244,160.292042 10.668848,155.028553 10.668848,148.650942 L10.668848,121.057913 C10.668848,114.806376 15.4683692,109.602136 21.6994754,109.097131 Z" id="Rectangle" stroke="#E7E7E7" stroke-width="7" transform="translate(48.168848, 134.676995) rotate(73.000000) translate(-48.168848, -134.676995) "></path>
            <line x1="4.5" y1="73.5" x2="70.5" y2="44.5" id="Line" stroke="#E7E7E7" stroke-width="7" stroke-linecap="round"></line>
            <line x1="42.5" y1="111.5" x2="109.5" y2="108.5" id="Line-Copy-2" stroke="#E7E7E7" stroke-width="7" stroke-linecap="round"></line>
            <line x1="11" y1="202" x2="0" y2="216" id="Line-Copy-3" stroke="#E7E7E7" stroke-width="6" stroke-linecap="round"></line>
            <line x1="119.5" y1="209.5" x2="101" y2="206" id="Line-Copy-3" stroke="#E7E7E7" stroke-width="6" stroke-linecap="round"></line>
            <line x1="98.5209393" y1="112.853827" x2="127.658313" y2="100.047053" id="Line-Copy" stroke="#E7E7E7" stroke-width="7" stroke-linecap="round" transform="translate(113.185348, 106.729367) rotate(-20.000000) translate(-113.185348, -106.729367) "></line>
        </g>
        <text id="Tri-State-Cricket-Le" opacity="0.9" font-family="OswaldStencil-Bold, Oswald Stencil" font-size="80" font-weight="bold" line-spacing="100" fill="#FFFFFF">
            <tspan x="250" y="103">Tri-State</tspan>
            <tspan x="250" y="203">Cricket League</tspan>
        </text>
    </g>
</svg>